<svg xmlns="http://www.w3.org/2000/svg" width="64" height="64" viewBox="0 0 64 64">
  <!-- Dome -->
  <path d="M32 4c-8 0-16 5-16 12s8 12 16 12 16-5 16-12-8-12-16-12z" fill="#4CAF50"/>
  
  <!-- Minarets -->
  <rect x="10" y="28" width="6" height="24" fill="#8BC34A"/>
  <rect x="48" y="28" width="6" height="24" fill="#8BC34A"/>

  <!-- Main Structure -->
  <rect x="16" y="28" width="32" height="24" fill="#66BB6A"/>

  <!-- Door -->
  <rect x="28" y="40" width="8" height="12" fill="#388E3C"/>

  <!-- Crescent on Dome -->
  <path d="M32 10a3 3 0 1 1 0 6 3 3 0 0 1 0-6z" fill="#FFD54F"/>
  <path d="M32 10c0-.8.3-1.5.7-2 .5.5.7 1.2.7 2s-.2 1.5-.7 2c-.4-.5-.7-1.2-.7-2z" fill="#4CAF50"/>
</svg>
